<svg width="13" height="10" viewBox="0 0 13 10" fill="none" xmlns="http://www.w3.org/2000/svg">
<path fill-rule="evenodd" clip-rule="evenodd" d="M10.0882 2.64455C9.85237 2.50646 9.66128 2.30885 9.53618 2.07365C9.41108 1.83845 9.35685 1.57486 9.37952 1.3121L7.8747 1.06039L8.00445 0.357034L9.63113 0.629094C9.7684 0.435261 9.95359 0.276515 10.1704 0.166819C10.3872 0.0571219 10.6291 -0.000163721 10.8746 3.51449e-07H12.1439C12.2714 3.51449e-07 12.3745 0.0981846 12.3745 0.219576V2.63669C12.3745 2.75809 12.271 2.85627 12.1439 2.85627H11.9995V5.8018C12.5897 5.64081 13.2218 5.69776 13.7698 5.96126C14.3177 6.22475 14.741 6.6754 14.9552 7.22315C15.0722 7.52306 14.9469 7.7969 14.7321 7.96007C14.7506 8.43407 14.5883 8.89845 14.2752 9.26741C13.9622 9.63637 13.5194 9.88499 13.0288 9.96734C12.5382 10.0497 12.0328 9.96019 11.6061 9.71539C11.1794 9.4706 10.8602 9.08704 10.7073 8.63558C10.5045 8.5706 10.3282 8.42493 10.2615 8.21178H5.9919C5.94587 8.70024 5.70954 9.15463 5.3294 9.48556C4.94925 9.81649 4.45281 10 3.93773 10C3.42264 10 2.9262 9.81649 2.54605 9.48556C2.16591 9.15463 1.92958 8.70024 1.88355 8.21178H0.176243C0.153736 8.21239 0.131323 8.20878 0.110282 8.20115C0.0892418 8.19352 0.0699875 8.18201 0.05362 8.16729C0.0372524 8.15257 0.0240924 8.13492 0.014892 8.11535C0.00569155 8.09578 0.000631136 8.07468 0 8.05325C0 6.79078 0.760096 5.68862 1.88993 5.09844C1.87998 5.06596 1.87493 5.0323 1.87493 4.99847V3.92737C1.87493 3.6433 1.99345 3.37086 2.20442 3.16999C2.41539 2.96912 2.70153 2.85627 2.99989 2.85627H6.37476C6.67311 2.85627 6.95925 2.96912 7.17022 3.16999C7.38119 3.37086 7.49971 3.6433 7.49971 3.92737V4.99847C7.49971 5.09316 7.46021 5.18398 7.38988 5.25093C7.31956 5.31789 7.22418 5.35551 7.12473 5.35551V5.71254H9.46464L10.0882 2.64455ZM10.1246 1.42814C10.1246 1.23875 10.2036 1.05713 10.3443 0.923213C10.4849 0.7893 10.6757 0.714068 10.8746 0.714068H11.6246V2.1422H10.8746C10.6757 2.1422 10.4849 2.06697 10.3443 1.93306C10.2036 1.79914 10.1246 1.61752 10.1246 1.42814ZM9.31914 6.42661H7.12473V7.49771H9.10165L9.31914 6.42661ZM9.8655 7.49771H10.299C10.4344 6.95318 10.772 6.47362 11.2496 6.14741V2.85627H10.809L9.8655 7.49771ZM11.4967 8.59238C11.6232 8.83319 11.828 9.02867 12.0806 9.14971C12.3333 9.27075 12.6202 9.31089 12.8987 9.26414C13.1772 9.2174 13.4324 9.08627 13.6264 8.89028C13.8203 8.6943 13.9426 8.44392 13.975 8.17643L11.4967 8.59238ZM2.6249 3.92737C2.6249 3.83268 2.66441 3.74187 2.73473 3.67491C2.80505 3.60795 2.90043 3.57034 2.99989 3.57034H6.37476C6.47421 3.57034 6.56959 3.60795 6.63991 3.67491C6.71024 3.74187 6.74974 3.83268 6.74974 3.92737V4.64144H2.6249V3.92737ZM0.815219 7.49771C1.10021 6.29629 2.29229 5.35551 3.78211 5.35551H6.37476V7.48628C6.36262 7.49442 6.34796 7.49844 6.33313 7.49771H0.815219ZM5.10693 8.21999C5.15418 8.22142 5.19655 8.22284 5.23443 8.22463C5.1866 8.5195 5.02954 8.78835 4.79165 8.98257C4.55375 9.17678 4.25072 9.28354 3.93735 9.28354C3.62398 9.28354 3.32095 9.17678 3.08305 8.98257C2.84516 8.78835 2.6881 8.5195 2.64027 8.22463C2.67815 8.22284 2.72052 8.22106 2.76777 8.21999C3.04376 8.21178 3.41612 8.21178 3.93735 8.21178C4.45821 8.21178 4.83094 8.21178 5.10731 8.21999H5.10693ZM13.6386 6.71688C13.3916 6.55213 13.1026 6.45344 12.8019 6.43108C12.5012 6.40873 12.1997 6.46352 11.9288 6.58976C11.6579 6.716 11.4275 6.90907 11.2615 7.14888C11.0956 7.38868 11.0001 7.66646 10.9852 7.95328L14.2258 7.40916C14.1025 7.13023 13.899 6.89049 13.6386 6.71688Z" fill="#7F7F7F"/>
</svg>
